<mxfile host="app.diagrams.net" agent="Mozilla/5.0 (Windows NT 10.0; Win64; x64) AppleWebKit/537.36 (KHTML, like Gecko) Chrome/130.0.0.0 Safari/537.36" version="24.8.4">
  <diagram name="Страница — 1" id="T017fsJPNhUzcpo0UkNv">
    <mxGraphModel dx="1434" dy="780" grid="1" gridSize="10" guides="1" tooltips="1" connect="1" arrows="1" fold="1" page="1" pageScale="1" pageWidth="583" pageHeight="827" math="0" shadow="0">
      <root>
        <mxCell id="0" />
        <mxCell id="1" parent="0" />
        <mxCell id="GLSh_lP_LO2hRpxLr49b-1" style="edgeStyle=orthogonalEdgeStyle;rounded=0;orthogonalLoop=1;jettySize=auto;html=1;" edge="1" parent="1" source="GLSh_lP_LO2hRpxLr49b-2" target="GLSh_lP_LO2hRpxLr49b-4">
          <mxGeometry relative="1" as="geometry" />
        </mxCell>
        <mxCell id="GLSh_lP_LO2hRpxLr49b-2" value="Begin" style="ellipse;whiteSpace=wrap;html=1;fontFamily=Times New Roman;fontColor=#000000;fontSize=13;" vertex="1" parent="1">
          <mxGeometry x="220" y="20" width="116.5" height="50" as="geometry" />
        </mxCell>
        <mxCell id="GLSh_lP_LO2hRpxLr49b-3" style="edgeStyle=orthogonalEdgeStyle;rounded=0;orthogonalLoop=1;jettySize=auto;html=1;exitX=0.5;exitY=1;exitDx=0;exitDy=0;" edge="1" parent="1" source="GLSh_lP_LO2hRpxLr49b-4" target="GLSh_lP_LO2hRpxLr49b-7">
          <mxGeometry relative="1" as="geometry" />
        </mxCell>
        <mxCell id="GLSh_lP_LO2hRpxLr49b-4" value="a, b, c, d" style="shape=parallelogram;perimeter=parallelogramPerimeter;whiteSpace=wrap;html=1;fixedSize=1;" vertex="1" parent="1">
          <mxGeometry x="221.75" y="110" width="113" height="50" as="geometry" />
        </mxCell>
        <mxCell id="GLSh_lP_LO2hRpxLr49b-5" style="edgeStyle=orthogonalEdgeStyle;rounded=0;orthogonalLoop=1;jettySize=auto;html=1;entryX=0.5;entryY=0;entryDx=0;entryDy=0;" edge="1" parent="1" source="GLSh_lP_LO2hRpxLr49b-7" target="GLSh_lP_LO2hRpxLr49b-11">
          <mxGeometry relative="1" as="geometry" />
        </mxCell>
        <mxCell id="GLSh_lP_LO2hRpxLr49b-6" value="Yes" style="edgeLabel;html=1;align=center;verticalAlign=middle;resizable=0;points=[];" vertex="1" connectable="0" parent="GLSh_lP_LO2hRpxLr49b-5">
          <mxGeometry x="0.0998" relative="1" as="geometry">
            <mxPoint as="offset" />
          </mxGeometry>
        </mxCell>
        <mxCell id="GLSh_lP_LO2hRpxLr49b-7" value="a &amp;gt; b &amp;amp; c &amp;gt; d" style="rhombus;whiteSpace=wrap;html=1;" vertex="1" parent="1">
          <mxGeometry x="232.25" y="200" width="92" height="80" as="geometry" />
        </mxCell>
        <mxCell id="GLSh_lP_LO2hRpxLr49b-8" style="edgeStyle=orthogonalEdgeStyle;rounded=0;orthogonalLoop=1;jettySize=auto;html=1;entryX=0;entryY=0.5;entryDx=0;entryDy=0;exitX=0.454;exitY=1;exitDx=0;exitDy=0;exitPerimeter=0;" edge="1" parent="1" source="GLSh_lP_LO2hRpxLr49b-9" target="GLSh_lP_LO2hRpxLr49b-34">
          <mxGeometry relative="1" as="geometry" />
        </mxCell>
        <mxCell id="GLSh_lP_LO2hRpxLr49b-9" value="&lt;span style=&quot;text-align: start; white-space-collapse: preserve; background-color: rgb(255, 255, 255);&quot;&gt;&lt;font style=&quot;font-size: 10px;&quot; face=&quot;Times New Roman&quot;&gt;&quot;Ошибка: размеры стола должны быть a &amp;gt; b, а размеры картонки c &amp;gt; d&quot;&lt;/font&gt;&lt;/span&gt;" style="rounded=0;whiteSpace=wrap;html=1;" vertex="1" parent="1">
          <mxGeometry x="50" y="280" width="140" height="50" as="geometry" />
        </mxCell>
        <mxCell id="GLSh_lP_LO2hRpxLr49b-10" style="edgeStyle=orthogonalEdgeStyle;rounded=0;orthogonalLoop=1;jettySize=auto;html=1;" edge="1" parent="1" source="GLSh_lP_LO2hRpxLr49b-11" target="GLSh_lP_LO2hRpxLr49b-15">
          <mxGeometry relative="1" as="geometry" />
        </mxCell>
        <mxCell id="GLSh_lP_LO2hRpxLr49b-11" value="&lt;font style=&quot;font-size: 12px;&quot; face=&quot;Times New Roman&quot;&gt;n1 = a / c&lt;/font&gt;&lt;div style=&quot;&quot;&gt;&lt;font style=&quot;font-size: 12px;&quot; face=&quot;dbqERhXnwNJHvy-pUjwD&quot;&gt;m1 = b / d&lt;/font&gt;&lt;/div&gt;&lt;div style=&quot;&quot;&gt;&lt;font style=&quot;font-size: 12px;&quot; face=&quot;dbqERhXnwNJHvy-pUjwD&quot;&gt;N1 = n1 * m1&lt;/font&gt;&lt;/div&gt;" style="rounded=0;whiteSpace=wrap;html=1;" vertex="1" parent="1">
          <mxGeometry x="400" y="280" width="120" height="50" as="geometry" />
        </mxCell>
        <mxCell id="GLSh_lP_LO2hRpxLr49b-12" style="edgeStyle=orthogonalEdgeStyle;rounded=0;orthogonalLoop=1;jettySize=auto;html=1;entryX=0.464;entryY=0.007;entryDx=0;entryDy=0;entryPerimeter=0;" edge="1" parent="1" source="GLSh_lP_LO2hRpxLr49b-7" target="GLSh_lP_LO2hRpxLr49b-9">
          <mxGeometry relative="1" as="geometry" />
        </mxCell>
        <mxCell id="GLSh_lP_LO2hRpxLr49b-13" value="No" style="edgeLabel;html=1;align=center;verticalAlign=middle;resizable=0;points=[];" vertex="1" connectable="0" parent="GLSh_lP_LO2hRpxLr49b-12">
          <mxGeometry x="0.1706" relative="1" as="geometry">
            <mxPoint as="offset" />
          </mxGeometry>
        </mxCell>
        <mxCell id="GLSh_lP_LO2hRpxLr49b-14" style="edgeStyle=orthogonalEdgeStyle;rounded=0;orthogonalLoop=1;jettySize=auto;html=1;" edge="1" parent="1" source="GLSh_lP_LO2hRpxLr49b-15" target="GLSh_lP_LO2hRpxLr49b-20">
          <mxGeometry relative="1" as="geometry" />
        </mxCell>
        <mxCell id="GLSh_lP_LO2hRpxLr49b-15" value="&lt;span style=&quot;font-family: &amp;quot;Times New Roman&amp;quot;; font-size: 13px;&quot;&gt;n1 = a / d&lt;/span&gt;&lt;div style=&quot;font-family: &amp;quot;Times New Roman&amp;quot;; font-size: 13px;&quot;&gt;m1 = b / c&lt;/div&gt;&lt;div style=&quot;font-family: &amp;quot;Times New Roman&amp;quot;; font-size: 13px;&quot;&gt;N2 = n2 * m2&lt;/div&gt;" style="rounded=0;whiteSpace=wrap;html=1;" vertex="1" parent="1">
          <mxGeometry x="400" y="364" width="120" height="50" as="geometry" />
        </mxCell>
        <mxCell id="GLSh_lP_LO2hRpxLr49b-16" style="edgeStyle=orthogonalEdgeStyle;rounded=0;orthogonalLoop=1;jettySize=auto;html=1;" edge="1" parent="1" source="GLSh_lP_LO2hRpxLr49b-20" target="GLSh_lP_LO2hRpxLr49b-22">
          <mxGeometry relative="1" as="geometry" />
        </mxCell>
        <mxCell id="GLSh_lP_LO2hRpxLr49b-17" value="Yes" style="edgeLabel;html=1;align=center;verticalAlign=middle;resizable=0;points=[];" vertex="1" connectable="0" parent="GLSh_lP_LO2hRpxLr49b-16">
          <mxGeometry x="-0.0386" y="2" relative="1" as="geometry">
            <mxPoint as="offset" />
          </mxGeometry>
        </mxCell>
        <mxCell id="GLSh_lP_LO2hRpxLr49b-18" style="edgeStyle=orthogonalEdgeStyle;rounded=0;orthogonalLoop=1;jettySize=auto;html=1;entryX=0.5;entryY=0;entryDx=0;entryDy=0;" edge="1" parent="1" source="GLSh_lP_LO2hRpxLr49b-20" target="GLSh_lP_LO2hRpxLr49b-27">
          <mxGeometry relative="1" as="geometry" />
        </mxCell>
        <mxCell id="GLSh_lP_LO2hRpxLr49b-19" value="No" style="edgeLabel;html=1;align=center;verticalAlign=middle;resizable=0;points=[];" vertex="1" connectable="0" parent="GLSh_lP_LO2hRpxLr49b-18">
          <mxGeometry x="-0.0377" y="1" relative="1" as="geometry">
            <mxPoint as="offset" />
          </mxGeometry>
        </mxCell>
        <mxCell id="GLSh_lP_LO2hRpxLr49b-20" value="N1 &amp;gt; N2" style="rhombus;whiteSpace=wrap;html=1;fontFamily=Times New Roman;fontColor=#000000;fontSize=13;" vertex="1" parent="1">
          <mxGeometry x="410" y="450" width="100" height="80" as="geometry" />
        </mxCell>
        <mxCell id="GLSh_lP_LO2hRpxLr49b-21" style="edgeStyle=orthogonalEdgeStyle;rounded=0;orthogonalLoop=1;jettySize=auto;html=1;entryX=0.5;entryY=0;entryDx=0;entryDy=0;" edge="1" parent="1" source="GLSh_lP_LO2hRpxLr49b-22" target="GLSh_lP_LO2hRpxLr49b-34">
          <mxGeometry relative="1" as="geometry" />
        </mxCell>
        <mxCell id="GLSh_lP_LO2hRpxLr49b-22" value="&lt;span style=&quot;text-align: left; font-size: 13px;&quot;&gt;&lt;font style=&quot;font-size: 13px;&quot;&gt;&quot;Лучше разместить картонки длинной стороной вдоль длинной стороны стола&quot;&lt;/font&gt;&lt;/span&gt;" style="rounded=0;whiteSpace=wrap;html=1;fontFamily=Times New Roman;fontColor=#000000;fontSize=13;" vertex="1" parent="1">
          <mxGeometry x="250" y="540" width="140" height="70" as="geometry" />
        </mxCell>
        <mxCell id="GLSh_lP_LO2hRpxLr49b-23" style="edgeStyle=orthogonalEdgeStyle;rounded=0;orthogonalLoop=1;jettySize=auto;html=1;entryX=0.5;entryY=0;entryDx=0;entryDy=0;exitX=0;exitY=0.5;exitDx=0;exitDy=0;" edge="1" parent="1" source="GLSh_lP_LO2hRpxLr49b-27" target="GLSh_lP_LO2hRpxLr49b-29">
          <mxGeometry relative="1" as="geometry" />
        </mxCell>
        <mxCell id="GLSh_lP_LO2hRpxLr49b-24" value="Yes" style="edgeLabel;html=1;align=center;verticalAlign=middle;resizable=0;points=[];" vertex="1" connectable="0" parent="GLSh_lP_LO2hRpxLr49b-23">
          <mxGeometry x="-0.2672" y="1" relative="1" as="geometry">
            <mxPoint as="offset" />
          </mxGeometry>
        </mxCell>
        <mxCell id="GLSh_lP_LO2hRpxLr49b-25" style="edgeStyle=orthogonalEdgeStyle;rounded=0;orthogonalLoop=1;jettySize=auto;html=1;entryX=0.5;entryY=0;entryDx=0;entryDy=0;exitX=1;exitY=0.5;exitDx=0;exitDy=0;" edge="1" parent="1" source="GLSh_lP_LO2hRpxLr49b-27" target="GLSh_lP_LO2hRpxLr49b-31">
          <mxGeometry relative="1" as="geometry" />
        </mxCell>
        <mxCell id="GLSh_lP_LO2hRpxLr49b-26" value="No" style="edgeLabel;html=1;align=center;verticalAlign=middle;resizable=0;points=[];" vertex="1" connectable="0" parent="GLSh_lP_LO2hRpxLr49b-25">
          <mxGeometry x="-0.3932" y="1" relative="1" as="geometry">
            <mxPoint as="offset" />
          </mxGeometry>
        </mxCell>
        <mxCell id="GLSh_lP_LO2hRpxLr49b-27" value="N1 &amp;lt; N2" style="rhombus;whiteSpace=wrap;html=1;fontFamily=Times New Roman;fontColor=#000000;fontSize=13;" vertex="1" parent="1">
          <mxGeometry x="550" y="530" width="90" height="80" as="geometry" />
        </mxCell>
        <mxCell id="GLSh_lP_LO2hRpxLr49b-28" style="edgeStyle=orthogonalEdgeStyle;rounded=0;orthogonalLoop=1;jettySize=auto;html=1;entryX=1;entryY=0.5;entryDx=0;entryDy=0;" edge="1" parent="1" source="GLSh_lP_LO2hRpxLr49b-29" target="GLSh_lP_LO2hRpxLr49b-34">
          <mxGeometry relative="1" as="geometry" />
        </mxCell>
        <mxCell id="GLSh_lP_LO2hRpxLr49b-29" value="&lt;span style=&quot;text-align: left; font-size: 13px;&quot;&gt;&lt;font style=&quot;font-size: 13px;&quot;&gt;&quot;Лучше разместить картонки длинной стороной вдоль короткой стороны стола&quot;&lt;/font&gt;&lt;/span&gt;" style="rounded=0;whiteSpace=wrap;html=1;fontFamily=Times New Roman;fontColor=#000000;fontSize=13;" vertex="1" parent="1">
          <mxGeometry x="410" y="640" width="140" height="70" as="geometry" />
        </mxCell>
        <mxCell id="GLSh_lP_LO2hRpxLr49b-30" style="edgeStyle=orthogonalEdgeStyle;rounded=0;orthogonalLoop=1;jettySize=auto;html=1;" edge="1" parent="1" source="GLSh_lP_LO2hRpxLr49b-31" target="GLSh_lP_LO2hRpxLr49b-33">
          <mxGeometry relative="1" as="geometry" />
        </mxCell>
        <mxCell id="GLSh_lP_LO2hRpxLr49b-31" value="N1 = N2" style="rhombus;whiteSpace=wrap;html=1;fontFamily=Times New Roman;fontColor=#000000;fontSize=13;" vertex="1" parent="1">
          <mxGeometry x="640" y="630" width="90" height="80" as="geometry" />
        </mxCell>
        <mxCell id="GLSh_lP_LO2hRpxLr49b-32" style="edgeStyle=orthogonalEdgeStyle;rounded=0;orthogonalLoop=1;jettySize=auto;html=1;entryX=1;entryY=0.5;entryDx=0;entryDy=0;exitX=0.5;exitY=1;exitDx=0;exitDy=0;" edge="1" parent="1" source="GLSh_lP_LO2hRpxLr49b-33" target="GLSh_lP_LO2hRpxLr49b-34">
          <mxGeometry relative="1" as="geometry" />
        </mxCell>
        <mxCell id="GLSh_lP_LO2hRpxLr49b-33" value="Оба варианта равнозначны" style="rounded=0;whiteSpace=wrap;html=1;fontFamily=Times New Roman;fontColor=#000000;fontSize=13;" vertex="1" parent="1">
          <mxGeometry x="625" y="750" width="120" height="60" as="geometry" />
        </mxCell>
        <mxCell id="GLSh_lP_LO2hRpxLr49b-34" value="End" style="ellipse;whiteSpace=wrap;html=1;" vertex="1" parent="1">
          <mxGeometry x="310" y="827" width="120" height="63" as="geometry" />
        </mxCell>
      </root>
    </mxGraphModel>
  </diagram>
</mxfile>
